<?xml version="1.0" encoding="UTF-8" standalone="no"?>
<svg
   height="24px"
   viewBox="0 0 24 24"
   width="24px"
   fill="#000000"
   version="1.1"
   id="svg107"
   sodipodi:docname="pets_white.svg"
   inkscape:version="1.1.2 (b8e25be8, 2022-02-05)"
   xmlns:inkscape="http://www.inkscape.org/namespaces/inkscape"
   xmlns:sodipodi="http://sodipodi.sourceforge.net/DTD/sodipodi-0.dtd"
   xmlns="http://www.w3.org/2000/svg"
   xmlns:svg="http://www.w3.org/2000/svg">
  <defs
     id="defs111" />
  <sodipodi:namedview
     id="namedview109"
     pagecolor="#ffffff"
     bordercolor="#666666"
     borderopacity="1.0"
     inkscape:pageshadow="2"
     inkscape:pageopacity="0.0"
     inkscape:pagecheckerboard="0"
     showgrid="false"
     inkscape:zoom="35.125"
     inkscape:cx="12"
     inkscape:cy="12.014235"
     inkscape:window-width="1312"
     inkscape:window-height="978"
     inkscape:window-x="2137"
     inkscape:window-y="25"
     inkscape:window-maximized="0"
     inkscape:current-layer="svg107" />
  <path
     d="M0 0h24v24H0V0z"
     fill="none"
     id="path95" />
  <circle
     cx="4.5"
     cy="9.5"
     r="2.5"
     id="circle97"
     style="fill:#ffffff" />
  <circle
     cx="9"
     cy="5.5"
     r="2.5"
     id="circle99"
     style="fill:#ffffff" />
  <circle
     cx="15"
     cy="5.5"
     r="2.5"
     id="circle101"
     style="fill:#ffffff" />
  <circle
     cx="19.5"
     cy="9.5"
     r="2.5"
     id="circle103"
     style="fill:#ffffff" />
  <path
     d="M17.34 14.86c-.87-1.02-1.6-1.89-2.48-2.91-.46-.54-1.05-1.08-1.75-1.32-.11-.04-.22-.07-.33-.09-.25-.04-.52-.04-.78-.04s-.53 0-.79.05c-.11.02-.22.05-.33.09-.7.24-1.28.78-1.75 1.32-.87 1.02-1.6 1.89-2.48 2.91-1.31 1.31-2.92 2.76-2.62 4.79.29 1.02 1.02 2.03 2.33 2.32.73.15 3.06-.44 5.54-.44h.18c2.48 0 4.81.58 5.54.44 1.31-.29 2.04-1.31 2.33-2.32.31-2.04-1.3-3.49-2.61-4.8z"
     id="path105"
     style="fill:#ffffff" />
</svg>
